# xmcd
#
# Track frame offsets: 
#        150
#        18246
#        38055
#        52747
#        67979
#        81641
#        99849
#        112007
#        130153
#        142586
#        156434
#
# Disc length: 2347 seconds
#
# Revision: 1
# Processed by: cddbd v1.5.2PL0 Copyright (c) Steve Scherf et al.
# Submitted via: ExactAudioCopy v1.0b1
#
DISCID=8409290b
DTITLE=Skull Snaps - Skull Snaps
DYEAR=2005
DGENRE=Funk
TTITLE0=My Hang Up Is You
TTITLE1=Having You Around
TTITLE2=Didn't Do It To You
TTITLE3=All Of A Sudden
TTITLE4=It's A New Day
TTITLE5=I'm Your Pimp
TTITLE6=I Turn My Back On Love
TTITLE7=Trespassing
TTITLE8=I'm Falling Out Of Love
TTITLE9=Al's Razor Blade
TTITLE10=Ain't That Loving You
EXTD=© 1973 GSF Records, Inc.\n© 2005 Aztec Music
EXTT0=
EXTT1=
EXTT2=
EXTT3=
EXTT4=
EXTT5=
EXTT6=
EXTT7=
EXTT8=
EXTT9=
EXTT10=
PLAYORDER=
